<mxfile host="app.diagrams.net" modified="2023-11-04T16:40:36.807Z" agent="Mozilla/5.0 (Windows NT 10.0; Win64; x64) AppleWebKit/537.36 (KHTML, like Gecko) Chrome/119.0.0.0 Safari/537.36 Edg/119.0.0.0" etag="rIjThgTZbtEzNVHns88H" version="22.0.8" type="device">
  <diagram name="Page-1" id="31LLCyJY6GwUdiOaifiH">
    <mxGraphModel dx="1869" dy="1704" grid="1" gridSize="10" guides="1" tooltips="1" connect="1" arrows="1" fold="1" page="1" pageScale="1" pageWidth="827" pageHeight="1169" math="0" shadow="0">
      <root>
        <mxCell id="0" />
        <mxCell id="1" parent="0" />
        <mxCell id="mtci-S--0O6nyzgvmTA5-33" style="rounded=0;orthogonalLoop=1;jettySize=auto;html=1;exitX=0.75;exitY=0;exitDx=0;exitDy=0;endArrow=none;endFill=0;entryX=0.5;entryY=1;entryDx=0;entryDy=0;" parent="1" target="mtci-S--0O6nyzgvmTA5-31" edge="1">
          <mxGeometry relative="1" as="geometry">
            <mxPoint x="30" y="200" as="sourcePoint" />
            <mxPoint x="37.8947368421052" y="57.8947368421052" as="targetPoint" />
          </mxGeometry>
        </mxCell>
        <mxCell id="cmSnR2IaZ1wPyhhUwhgz-66" style="rounded=0;orthogonalLoop=1;jettySize=auto;html=1;exitX=1;exitY=0;exitDx=0;exitDy=0;entryX=0;entryY=1;entryDx=0;entryDy=0;endArrow=none;endFill=0;" parent="1" source="mtci-S--0O6nyzgvmTA5-1" target="cmSnR2IaZ1wPyhhUwhgz-59" edge="1">
          <mxGeometry relative="1" as="geometry" />
        </mxCell>
        <mxCell id="cmSnR2IaZ1wPyhhUwhgz-92" style="rounded=0;orthogonalLoop=1;jettySize=auto;html=1;exitX=1;exitY=0.75;exitDx=0;exitDy=0;entryX=0;entryY=0.5;entryDx=0;entryDy=0;endArrow=none;endFill=0;" parent="1" source="mtci-S--0O6nyzgvmTA5-1" target="cmSnR2IaZ1wPyhhUwhgz-91" edge="1">
          <mxGeometry relative="1" as="geometry" />
        </mxCell>
        <mxCell id="mtci-S--0O6nyzgvmTA5-1" value="&lt;b&gt;&lt;font style=&quot;font-size: 14px;&quot;&gt;Media&lt;/font&gt;&lt;/b&gt;" style="rounded=1;whiteSpace=wrap;html=1;fillColor=#06e02a;" parent="1" vertex="1">
          <mxGeometry x="-30" y="200" width="120" height="60" as="geometry" />
        </mxCell>
        <mxCell id="mtci-S--0O6nyzgvmTA5-3" value="title" style="ellipse;whiteSpace=wrap;html=1;" parent="1" vertex="1">
          <mxGeometry x="-740" width="120" height="80" as="geometry" />
        </mxCell>
        <mxCell id="mtci-S--0O6nyzgvmTA5-4" value="category" style="ellipse;whiteSpace=wrap;html=1;" parent="1" vertex="1">
          <mxGeometry x="-720" y="-110" width="120" height="80" as="geometry" />
        </mxCell>
        <mxCell id="mtci-S--0O6nyzgvmTA5-20" style="rounded=0;orthogonalLoop=1;jettySize=auto;html=1;exitX=1;exitY=1;exitDx=0;exitDy=0;entryX=0.25;entryY=0;entryDx=0;entryDy=0;endArrow=none;endFill=0;" parent="1" source="mtci-S--0O6nyzgvmTA5-5" target="mtci-S--0O6nyzgvmTA5-1" edge="1">
          <mxGeometry relative="1" as="geometry" />
        </mxCell>
        <mxCell id="mtci-S--0O6nyzgvmTA5-5" value="value" style="ellipse;whiteSpace=wrap;html=1;" parent="1" vertex="1">
          <mxGeometry x="-480" y="-470" width="120" height="80" as="geometry" />
        </mxCell>
        <mxCell id="mtci-S--0O6nyzgvmTA5-6" value="price" style="ellipse;whiteSpace=wrap;html=1;" parent="1" vertex="1">
          <mxGeometry x="-560" y="-380" width="120" height="80" as="geometry" />
        </mxCell>
        <mxCell id="mtci-S--0O6nyzgvmTA5-7" value="id" style="ellipse;whiteSpace=wrap;html=1;" parent="1" vertex="1">
          <mxGeometry x="-680" y="-310" width="120" height="80" as="geometry" />
        </mxCell>
        <mxCell id="mtci-S--0O6nyzgvmTA5-17" style="rounded=0;orthogonalLoop=1;jettySize=auto;html=1;exitX=1;exitY=0.5;exitDx=0;exitDy=0;entryX=0;entryY=0.5;entryDx=0;entryDy=0;endArrow=none;endFill=0;" parent="1" source="mtci-S--0O6nyzgvmTA5-8" target="mtci-S--0O6nyzgvmTA5-1" edge="1">
          <mxGeometry relative="1" as="geometry" />
        </mxCell>
        <mxCell id="mtci-S--0O6nyzgvmTA5-8" value="quantity" style="ellipse;whiteSpace=wrap;html=1;" parent="1" vertex="1">
          <mxGeometry x="-700" y="-200" width="120" height="80" as="geometry" />
        </mxCell>
        <mxCell id="mtci-S--0O6nyzgvmTA5-21" style="rounded=0;orthogonalLoop=1;jettySize=auto;html=1;exitX=0.5;exitY=1;exitDx=0;exitDy=0;endArrow=none;endFill=0;" parent="1" source="mtci-S--0O6nyzgvmTA5-9" target="mtci-S--0O6nyzgvmTA5-1" edge="1">
          <mxGeometry relative="1" as="geometry" />
        </mxCell>
        <mxCell id="mtci-S--0O6nyzgvmTA5-9" value="imageUrl" style="ellipse;whiteSpace=wrap;html=1;" parent="1" vertex="1">
          <mxGeometry x="-350" y="-540" width="120" height="80" as="geometry" />
        </mxCell>
        <mxCell id="mtci-S--0O6nyzgvmTA5-15" style="rounded=0;orthogonalLoop=1;jettySize=auto;html=1;entryX=0.015;entryY=0.893;entryDx=0;entryDy=0;endArrow=none;endFill=0;entryPerimeter=0;" parent="1" source="mtci-S--0O6nyzgvmTA5-3" target="mtci-S--0O6nyzgvmTA5-1" edge="1">
          <mxGeometry relative="1" as="geometry" />
        </mxCell>
        <mxCell id="mtci-S--0O6nyzgvmTA5-16" style="rounded=0;orthogonalLoop=1;jettySize=auto;html=1;exitX=0.992;exitY=0.347;exitDx=0;exitDy=0;endArrow=none;endFill=0;exitPerimeter=0;entryX=0;entryY=0.75;entryDx=0;entryDy=0;" parent="1" source="mtci-S--0O6nyzgvmTA5-4" target="mtci-S--0O6nyzgvmTA5-1" edge="1">
          <mxGeometry relative="1" as="geometry">
            <mxPoint x="-40" y="240" as="targetPoint" />
          </mxGeometry>
        </mxCell>
        <mxCell id="mtci-S--0O6nyzgvmTA5-18" style="rounded=0;orthogonalLoop=1;jettySize=auto;html=1;exitX=1;exitY=0.5;exitDx=0;exitDy=0;endArrow=none;endFill=0;entryX=0;entryY=0.25;entryDx=0;entryDy=0;" parent="1" source="mtci-S--0O6nyzgvmTA5-7" target="mtci-S--0O6nyzgvmTA5-1" edge="1">
          <mxGeometry relative="1" as="geometry">
            <mxPoint x="80" y="230" as="targetPoint" />
          </mxGeometry>
        </mxCell>
        <mxCell id="mtci-S--0O6nyzgvmTA5-19" style="rounded=0;orthogonalLoop=1;jettySize=auto;html=1;exitX=1;exitY=1;exitDx=0;exitDy=0;entryX=0.112;entryY=0.003;entryDx=0;entryDy=0;entryPerimeter=0;endArrow=none;endFill=0;" parent="1" source="mtci-S--0O6nyzgvmTA5-6" target="mtci-S--0O6nyzgvmTA5-1" edge="1">
          <mxGeometry relative="1" as="geometry" />
        </mxCell>
        <mxCell id="cmSnR2IaZ1wPyhhUwhgz-2" style="rounded=0;orthogonalLoop=1;jettySize=auto;html=1;exitX=0;exitY=0;exitDx=0;exitDy=0;endArrow=none;endFill=0;" parent="1" source="mtci-S--0O6nyzgvmTA5-22" target="mtci-S--0O6nyzgvmTA5-24" edge="1">
          <mxGeometry relative="1" as="geometry" />
        </mxCell>
        <mxCell id="cmSnR2IaZ1wPyhhUwhgz-4" style="rounded=0;orthogonalLoop=1;jettySize=auto;html=1;exitX=0.5;exitY=0;exitDx=0;exitDy=0;endArrow=none;endFill=0;" parent="1" source="mtci-S--0O6nyzgvmTA5-22" target="mtci-S--0O6nyzgvmTA5-25" edge="1">
          <mxGeometry relative="1" as="geometry" />
        </mxCell>
        <mxCell id="cmSnR2IaZ1wPyhhUwhgz-5" style="rounded=0;orthogonalLoop=1;jettySize=auto;html=1;exitX=0.75;exitY=0;exitDx=0;exitDy=0;endArrow=none;endFill=0;" parent="1" source="mtci-S--0O6nyzgvmTA5-22" target="mtci-S--0O6nyzgvmTA5-29" edge="1">
          <mxGeometry relative="1" as="geometry" />
        </mxCell>
        <mxCell id="cmSnR2IaZ1wPyhhUwhgz-6" style="rounded=0;orthogonalLoop=1;jettySize=auto;html=1;exitX=1;exitY=0;exitDx=0;exitDy=0;endArrow=none;endFill=0;" parent="1" source="mtci-S--0O6nyzgvmTA5-22" target="mtci-S--0O6nyzgvmTA5-30" edge="1">
          <mxGeometry relative="1" as="geometry" />
        </mxCell>
        <mxCell id="cmSnR2IaZ1wPyhhUwhgz-7" style="rounded=0;orthogonalLoop=1;jettySize=auto;html=1;exitX=1;exitY=0.5;exitDx=0;exitDy=0;entryX=0;entryY=0.5;entryDx=0;entryDy=0;endArrow=none;endFill=0;" parent="1" source="mtci-S--0O6nyzgvmTA5-22" target="mtci-S--0O6nyzgvmTA5-27" edge="1">
          <mxGeometry relative="1" as="geometry" />
        </mxCell>
        <mxCell id="cmSnR2IaZ1wPyhhUwhgz-8" style="rounded=0;orthogonalLoop=1;jettySize=auto;html=1;exitX=1;exitY=0.75;exitDx=0;exitDy=0;endArrow=none;endFill=0;" parent="1" source="mtci-S--0O6nyzgvmTA5-22" target="mtci-S--0O6nyzgvmTA5-26" edge="1">
          <mxGeometry relative="1" as="geometry" />
        </mxCell>
        <mxCell id="mtci-S--0O6nyzgvmTA5-22" value="&lt;font style=&quot;font-size: 14px;&quot;&gt;&lt;b&gt;Book&lt;/b&gt;&lt;/font&gt;" style="rounded=1;whiteSpace=wrap;html=1;fillColor=#06e02a;" parent="1" vertex="1">
          <mxGeometry x="30" y="-210" width="120" height="60" as="geometry" />
        </mxCell>
        <mxCell id="mtci-S--0O6nyzgvmTA5-23" value="authors" style="ellipse;whiteSpace=wrap;html=1;" parent="1" vertex="1">
          <mxGeometry x="-160" y="-570" width="120" height="80" as="geometry" />
        </mxCell>
        <mxCell id="mtci-S--0O6nyzgvmTA5-24" value="coverType" style="ellipse;whiteSpace=wrap;html=1;" parent="1" vertex="1">
          <mxGeometry x="-200" y="-460" width="120" height="80" as="geometry" />
        </mxCell>
        <mxCell id="mtci-S--0O6nyzgvmTA5-25" value="publisher" style="ellipse;whiteSpace=wrap;html=1;" parent="1" vertex="1">
          <mxGeometry x="-50" y="-664" width="120" height="80" as="geometry" />
        </mxCell>
        <mxCell id="mtci-S--0O6nyzgvmTA5-26" value="publicationDate" style="ellipse;whiteSpace=wrap;html=1;" parent="1" vertex="1">
          <mxGeometry x="330" y="-520" width="120" height="80" as="geometry" />
        </mxCell>
        <mxCell id="mtci-S--0O6nyzgvmTA5-27" value="pages" style="ellipse;whiteSpace=wrap;html=1;" parent="1" vertex="1">
          <mxGeometry x="370" y="-630" width="120" height="80" as="geometry" />
        </mxCell>
        <mxCell id="mtci-S--0O6nyzgvmTA5-29" value="language" style="ellipse;whiteSpace=wrap;html=1;" parent="1" vertex="1">
          <mxGeometry x="100" y="-680" width="120" height="80" as="geometry" />
        </mxCell>
        <mxCell id="mtci-S--0O6nyzgvmTA5-30" value="genre" style="ellipse;whiteSpace=wrap;html=1;" parent="1" vertex="1">
          <mxGeometry x="240" y="-670" width="120" height="80" as="geometry" />
        </mxCell>
        <mxCell id="mtci-S--0O6nyzgvmTA5-31" value="&lt;font style=&quot;font-size: 14px;&quot;&gt;&lt;b&gt;is a&lt;/b&gt;&lt;/font&gt;" style="rhombus;whiteSpace=wrap;html=1;fillColor=#ff7300;" parent="1" vertex="1">
          <mxGeometry x="-30" y="-70" width="80" height="80" as="geometry" />
        </mxCell>
        <mxCell id="mtci-S--0O6nyzgvmTA5-34" style="rounded=0;orthogonalLoop=1;jettySize=auto;html=1;exitX=0.5;exitY=0;exitDx=0;exitDy=0;entryX=0.417;entryY=1;entryDx=0;entryDy=0;entryPerimeter=0;endArrow=none;endFill=0;" parent="1" source="mtci-S--0O6nyzgvmTA5-31" target="mtci-S--0O6nyzgvmTA5-22" edge="1">
          <mxGeometry relative="1" as="geometry" />
        </mxCell>
        <mxCell id="cmSnR2IaZ1wPyhhUwhgz-3" style="rounded=0;orthogonalLoop=1;jettySize=auto;html=1;exitX=0.25;exitY=0;exitDx=0;exitDy=0;entryX=0.723;entryY=0.979;entryDx=0;entryDy=0;entryPerimeter=0;endArrow=none;endFill=0;" parent="1" source="mtci-S--0O6nyzgvmTA5-22" target="mtci-S--0O6nyzgvmTA5-23" edge="1">
          <mxGeometry relative="1" as="geometry" />
        </mxCell>
        <mxCell id="cmSnR2IaZ1wPyhhUwhgz-22" style="rounded=0;orthogonalLoop=1;jettySize=auto;html=1;exitX=0.75;exitY=0;exitDx=0;exitDy=0;entryX=0;entryY=1;entryDx=0;entryDy=0;endArrow=none;endFill=0;" parent="1" source="cmSnR2IaZ1wPyhhUwhgz-9" target="cmSnR2IaZ1wPyhhUwhgz-21" edge="1">
          <mxGeometry relative="1" as="geometry" />
        </mxCell>
        <mxCell id="cmSnR2IaZ1wPyhhUwhgz-9" value="&lt;font style=&quot;font-size: 14px;&quot;&gt;&lt;b&gt;CD&lt;/b&gt;&lt;/font&gt;" style="rounded=1;whiteSpace=wrap;html=1;fillColor=#06e02a;" parent="1" vertex="1">
          <mxGeometry x="-210" y="440" width="120" height="60" as="geometry" />
        </mxCell>
        <mxCell id="cmSnR2IaZ1wPyhhUwhgz-16" style="rounded=0;orthogonalLoop=1;jettySize=auto;html=1;exitX=1;exitY=0.5;exitDx=0;exitDy=0;entryX=0;entryY=0.5;entryDx=0;entryDy=0;endArrow=none;endFill=0;" parent="1" source="cmSnR2IaZ1wPyhhUwhgz-10" target="cmSnR2IaZ1wPyhhUwhgz-9" edge="1">
          <mxGeometry relative="1" as="geometry" />
        </mxCell>
        <mxCell id="cmSnR2IaZ1wPyhhUwhgz-10" value="artists" style="ellipse;whiteSpace=wrap;html=1;" parent="1" vertex="1">
          <mxGeometry x="-570" y="410" width="120" height="80" as="geometry" />
        </mxCell>
        <mxCell id="cmSnR2IaZ1wPyhhUwhgz-11" value="recordLabel" style="ellipse;whiteSpace=wrap;html=1;" parent="1" vertex="1">
          <mxGeometry x="-570" y="530" width="120" height="80" as="geometry" />
        </mxCell>
        <mxCell id="cmSnR2IaZ1wPyhhUwhgz-12" value="trackList" style="ellipse;whiteSpace=wrap;html=1;" parent="1" vertex="1">
          <mxGeometry x="-533" y="630" width="120" height="80" as="geometry" />
        </mxCell>
        <mxCell id="cmSnR2IaZ1wPyhhUwhgz-13" value="musicType" style="ellipse;whiteSpace=wrap;html=1;" parent="1" vertex="1">
          <mxGeometry x="-320" y="800" width="120" height="80" as="geometry" />
        </mxCell>
        <mxCell id="cmSnR2IaZ1wPyhhUwhgz-14" value="publishDate" style="ellipse;whiteSpace=wrap;html=1;" parent="1" vertex="1">
          <mxGeometry x="-186" y="810" width="120" height="80" as="geometry" />
        </mxCell>
        <mxCell id="cmSnR2IaZ1wPyhhUwhgz-17" style="rounded=0;orthogonalLoop=1;jettySize=auto;html=1;exitX=1;exitY=0;exitDx=0;exitDy=0;entryX=0;entryY=0.75;entryDx=0;entryDy=0;endArrow=none;endFill=0;" parent="1" source="cmSnR2IaZ1wPyhhUwhgz-11" target="cmSnR2IaZ1wPyhhUwhgz-9" edge="1">
          <mxGeometry relative="1" as="geometry" />
        </mxCell>
        <mxCell id="cmSnR2IaZ1wPyhhUwhgz-18" style="rounded=0;orthogonalLoop=1;jettySize=auto;html=1;exitX=0.5;exitY=0;exitDx=0;exitDy=0;entryX=0.168;entryY=0.99;entryDx=0;entryDy=0;entryPerimeter=0;endArrow=none;endFill=0;" parent="1" source="cmSnR2IaZ1wPyhhUwhgz-12" target="cmSnR2IaZ1wPyhhUwhgz-9" edge="1">
          <mxGeometry relative="1" as="geometry" />
        </mxCell>
        <mxCell id="cmSnR2IaZ1wPyhhUwhgz-19" style="rounded=0;orthogonalLoop=1;jettySize=auto;html=1;exitX=0.5;exitY=0;exitDx=0;exitDy=0;entryX=0.667;entryY=1;entryDx=0;entryDy=0;entryPerimeter=0;endArrow=none;endFill=0;" parent="1" source="cmSnR2IaZ1wPyhhUwhgz-13" target="cmSnR2IaZ1wPyhhUwhgz-9" edge="1">
          <mxGeometry relative="1" as="geometry" />
        </mxCell>
        <mxCell id="cmSnR2IaZ1wPyhhUwhgz-20" style="rounded=0;orthogonalLoop=1;jettySize=auto;html=1;exitX=0.445;exitY=-0.016;exitDx=0;exitDy=0;entryX=0.905;entryY=1.003;entryDx=0;entryDy=0;entryPerimeter=0;endArrow=none;endFill=0;exitPerimeter=0;" parent="1" source="cmSnR2IaZ1wPyhhUwhgz-14" target="cmSnR2IaZ1wPyhhUwhgz-9" edge="1">
          <mxGeometry relative="1" as="geometry" />
        </mxCell>
        <mxCell id="cmSnR2IaZ1wPyhhUwhgz-23" style="rounded=0;orthogonalLoop=1;jettySize=auto;html=1;exitX=1;exitY=0;exitDx=0;exitDy=0;endArrow=none;endFill=0;" parent="1" source="cmSnR2IaZ1wPyhhUwhgz-21" target="mtci-S--0O6nyzgvmTA5-1" edge="1">
          <mxGeometry relative="1" as="geometry" />
        </mxCell>
        <mxCell id="cmSnR2IaZ1wPyhhUwhgz-21" value="&lt;font style=&quot;font-size: 14px;&quot;&gt;&lt;b&gt;is a&lt;/b&gt;&lt;/font&gt;" style="rhombus;whiteSpace=wrap;html=1;fillColor=#ff7300;" parent="1" vertex="1">
          <mxGeometry x="-90" y="320" width="80" height="80" as="geometry" />
        </mxCell>
        <mxCell id="cmSnR2IaZ1wPyhhUwhgz-24" value="&lt;font style=&quot;font-size: 14px;&quot;&gt;&lt;b&gt;DVD&lt;/b&gt;&lt;/font&gt;" style="rounded=1;whiteSpace=wrap;html=1;fillColor=#06e02a;" parent="1" vertex="1">
          <mxGeometry x="100" y="440" width="120" height="60" as="geometry" />
        </mxCell>
        <mxCell id="cmSnR2IaZ1wPyhhUwhgz-25" value="1" style="text;html=1;strokeColor=none;fillColor=none;align=center;verticalAlign=middle;whiteSpace=wrap;rounded=0;" parent="1" vertex="1">
          <mxGeometry x="-150" y="410" width="60" height="30" as="geometry" />
        </mxCell>
        <mxCell id="cmSnR2IaZ1wPyhhUwhgz-26" value="1" style="text;html=1;strokeColor=none;fillColor=none;align=center;verticalAlign=middle;whiteSpace=wrap;rounded=0;" parent="1" vertex="1">
          <mxGeometry x="-6" y="260" width="60" height="30" as="geometry" />
        </mxCell>
        <mxCell id="cmSnR2IaZ1wPyhhUwhgz-27" value="1" style="text;html=1;strokeColor=none;fillColor=none;align=center;verticalAlign=middle;whiteSpace=wrap;rounded=0;" parent="1" vertex="1">
          <mxGeometry x="10" y="170" width="60" height="30" as="geometry" />
        </mxCell>
        <mxCell id="cmSnR2IaZ1wPyhhUwhgz-29" value="1" style="text;html=1;strokeColor=none;fillColor=none;align=center;verticalAlign=middle;whiteSpace=wrap;rounded=0;" parent="1" vertex="1">
          <mxGeometry x="20" y="-150" width="60" height="30" as="geometry" />
        </mxCell>
        <mxCell id="cmSnR2IaZ1wPyhhUwhgz-32" style="rounded=0;orthogonalLoop=1;jettySize=auto;html=1;exitX=0.5;exitY=0;exitDx=0;exitDy=0;entryX=1;entryY=0;entryDx=0;entryDy=0;endArrow=none;endFill=0;" parent="1" source="cmSnR2IaZ1wPyhhUwhgz-30" target="cmSnR2IaZ1wPyhhUwhgz-26" edge="1">
          <mxGeometry relative="1" as="geometry" />
        </mxCell>
        <mxCell id="cmSnR2IaZ1wPyhhUwhgz-33" style="rounded=0;orthogonalLoop=1;jettySize=auto;html=1;exitX=1;exitY=1;exitDx=0;exitDy=0;endArrow=none;endFill=0;" parent="1" source="cmSnR2IaZ1wPyhhUwhgz-30" target="cmSnR2IaZ1wPyhhUwhgz-24" edge="1">
          <mxGeometry relative="1" as="geometry" />
        </mxCell>
        <mxCell id="cmSnR2IaZ1wPyhhUwhgz-30" value="&lt;font style=&quot;font-size: 14px;&quot;&gt;&lt;b&gt;is a&lt;/b&gt;&lt;/font&gt;" style="rhombus;whiteSpace=wrap;html=1;fillColor=#ff7300;" parent="1" vertex="1">
          <mxGeometry x="54" y="330" width="80" height="80" as="geometry" />
        </mxCell>
        <mxCell id="cmSnR2IaZ1wPyhhUwhgz-34" value="1" style="text;html=1;strokeColor=none;fillColor=none;align=center;verticalAlign=middle;whiteSpace=wrap;rounded=0;" parent="1" vertex="1">
          <mxGeometry x="50" y="260" width="60" height="30" as="geometry" />
        </mxCell>
        <mxCell id="cmSnR2IaZ1wPyhhUwhgz-35" value="1" style="text;html=1;strokeColor=none;fillColor=none;align=center;verticalAlign=middle;whiteSpace=wrap;rounded=0;" parent="1" vertex="1">
          <mxGeometry x="120" y="410" width="60" height="30" as="geometry" />
        </mxCell>
        <mxCell id="cmSnR2IaZ1wPyhhUwhgz-45" style="rounded=0;orthogonalLoop=1;jettySize=auto;html=1;exitX=1;exitY=0;exitDx=0;exitDy=0;entryX=0;entryY=0.5;entryDx=0;entryDy=0;endArrow=none;endFill=0;" parent="1" source="cmSnR2IaZ1wPyhhUwhgz-36" target="cmSnR2IaZ1wPyhhUwhgz-24" edge="1">
          <mxGeometry relative="1" as="geometry" />
        </mxCell>
        <mxCell id="cmSnR2IaZ1wPyhhUwhgz-36" value="discType" style="ellipse;whiteSpace=wrap;html=1;" parent="1" vertex="1">
          <mxGeometry x="-66" y="500" width="120" height="80" as="geometry" />
        </mxCell>
        <mxCell id="cmSnR2IaZ1wPyhhUwhgz-47" style="rounded=0;orthogonalLoop=1;jettySize=auto;html=1;exitX=0.5;exitY=0;exitDx=0;exitDy=0;entryX=0.5;entryY=1;entryDx=0;entryDy=0;endArrow=none;endFill=0;" parent="1" source="cmSnR2IaZ1wPyhhUwhgz-37" target="cmSnR2IaZ1wPyhhUwhgz-24" edge="1">
          <mxGeometry relative="1" as="geometry" />
        </mxCell>
        <mxCell id="cmSnR2IaZ1wPyhhUwhgz-37" value="director" style="ellipse;whiteSpace=wrap;html=1;" parent="1" vertex="1">
          <mxGeometry x="-30" y="730" width="120" height="80" as="geometry" />
        </mxCell>
        <mxCell id="cmSnR2IaZ1wPyhhUwhgz-38" value="runtime" style="ellipse;whiteSpace=wrap;html=1;" parent="1" vertex="1">
          <mxGeometry x="70" y="810" width="120" height="80" as="geometry" />
        </mxCell>
        <mxCell id="cmSnR2IaZ1wPyhhUwhgz-52" style="rounded=0;orthogonalLoop=1;jettySize=auto;html=1;exitX=0;exitY=0.5;exitDx=0;exitDy=0;entryX=1;entryY=0.25;entryDx=0;entryDy=0;endArrow=none;endFill=0;" parent="1" source="cmSnR2IaZ1wPyhhUwhgz-39" target="cmSnR2IaZ1wPyhhUwhgz-24" edge="1">
          <mxGeometry relative="1" as="geometry" />
        </mxCell>
        <mxCell id="cmSnR2IaZ1wPyhhUwhgz-39" value="studio" style="ellipse;whiteSpace=wrap;html=1;" parent="1" vertex="1">
          <mxGeometry x="400" y="550" width="120" height="80" as="geometry" />
        </mxCell>
        <mxCell id="cmSnR2IaZ1wPyhhUwhgz-50" style="rounded=0;orthogonalLoop=1;jettySize=auto;html=1;exitX=0;exitY=0;exitDx=0;exitDy=0;entryX=1;entryY=0.75;entryDx=0;entryDy=0;endArrow=none;endFill=0;" parent="1" source="cmSnR2IaZ1wPyhhUwhgz-40" target="cmSnR2IaZ1wPyhhUwhgz-24" edge="1">
          <mxGeometry relative="1" as="geometry" />
        </mxCell>
        <mxCell id="cmSnR2IaZ1wPyhhUwhgz-40" value="language" style="ellipse;whiteSpace=wrap;html=1;" parent="1" vertex="1">
          <mxGeometry x="340" y="750" width="120" height="80" as="geometry" />
        </mxCell>
        <mxCell id="cmSnR2IaZ1wPyhhUwhgz-41" value="subtitles" style="ellipse;whiteSpace=wrap;html=1;" parent="1" vertex="1">
          <mxGeometry x="220" y="820" width="120" height="80" as="geometry" />
        </mxCell>
        <mxCell id="cmSnR2IaZ1wPyhhUwhgz-51" style="rounded=0;orthogonalLoop=1;jettySize=auto;html=1;exitX=0;exitY=0.5;exitDx=0;exitDy=0;entryX=1;entryY=0.5;entryDx=0;entryDy=0;endArrow=none;endFill=0;" parent="1" source="cmSnR2IaZ1wPyhhUwhgz-42" target="cmSnR2IaZ1wPyhhUwhgz-24" edge="1">
          <mxGeometry relative="1" as="geometry" />
        </mxCell>
        <mxCell id="cmSnR2IaZ1wPyhhUwhgz-42" value="publishDate" style="ellipse;whiteSpace=wrap;html=1;" parent="1" vertex="1">
          <mxGeometry x="410" y="660" width="120" height="80" as="geometry" />
        </mxCell>
        <mxCell id="cmSnR2IaZ1wPyhhUwhgz-46" style="rounded=0;orthogonalLoop=1;jettySize=auto;html=1;exitX=1;exitY=0;exitDx=0;exitDy=0;entryX=0.25;entryY=1;entryDx=0;entryDy=0;endArrow=none;endFill=0;" parent="1" source="cmSnR2IaZ1wPyhhUwhgz-43" target="cmSnR2IaZ1wPyhhUwhgz-24" edge="1">
          <mxGeometry relative="1" as="geometry" />
        </mxCell>
        <mxCell id="cmSnR2IaZ1wPyhhUwhgz-43" value="contentType" style="ellipse;whiteSpace=wrap;html=1;" parent="1" vertex="1">
          <mxGeometry x="-90" y="620" width="120" height="80" as="geometry" />
        </mxCell>
        <mxCell id="cmSnR2IaZ1wPyhhUwhgz-48" style="rounded=0;orthogonalLoop=1;jettySize=auto;html=1;exitX=0.5;exitY=0;exitDx=0;exitDy=0;entryX=0.667;entryY=1;entryDx=0;entryDy=0;entryPerimeter=0;endArrow=none;endFill=0;" parent="1" source="cmSnR2IaZ1wPyhhUwhgz-38" target="cmSnR2IaZ1wPyhhUwhgz-24" edge="1">
          <mxGeometry relative="1" as="geometry" />
        </mxCell>
        <mxCell id="cmSnR2IaZ1wPyhhUwhgz-49" style="rounded=0;orthogonalLoop=1;jettySize=auto;html=1;exitX=0.5;exitY=0;exitDx=0;exitDy=0;entryX=0.838;entryY=1.019;entryDx=0;entryDy=0;entryPerimeter=0;endArrow=none;endFill=0;" parent="1" source="cmSnR2IaZ1wPyhhUwhgz-41" target="cmSnR2IaZ1wPyhhUwhgz-24" edge="1">
          <mxGeometry relative="1" as="geometry" />
        </mxCell>
        <mxCell id="cmSnR2IaZ1wPyhhUwhgz-60" style="rounded=0;orthogonalLoop=1;jettySize=auto;html=1;exitX=0.25;exitY=1;exitDx=0;exitDy=0;entryX=0.5;entryY=0;entryDx=0;entryDy=0;endArrow=none;endFill=0;" parent="1" source="cmSnR2IaZ1wPyhhUwhgz-53" target="cmSnR2IaZ1wPyhhUwhgz-55" edge="1">
          <mxGeometry relative="1" as="geometry" />
        </mxCell>
        <mxCell id="cmSnR2IaZ1wPyhhUwhgz-61" style="rounded=0;orthogonalLoop=1;jettySize=auto;html=1;exitX=0.5;exitY=1;exitDx=0;exitDy=0;entryX=0;entryY=0;entryDx=0;entryDy=0;endArrow=none;endFill=0;" parent="1" source="cmSnR2IaZ1wPyhhUwhgz-53" target="cmSnR2IaZ1wPyhhUwhgz-56" edge="1">
          <mxGeometry relative="1" as="geometry" />
        </mxCell>
        <mxCell id="cmSnR2IaZ1wPyhhUwhgz-62" style="rounded=0;orthogonalLoop=1;jettySize=auto;html=1;exitX=1;exitY=1;exitDx=0;exitDy=0;entryX=0;entryY=0.5;entryDx=0;entryDy=0;endArrow=none;endFill=0;" parent="1" source="cmSnR2IaZ1wPyhhUwhgz-53" target="cmSnR2IaZ1wPyhhUwhgz-57" edge="1">
          <mxGeometry relative="1" as="geometry" />
        </mxCell>
        <mxCell id="cmSnR2IaZ1wPyhhUwhgz-53" value="&lt;font style=&quot;font-size: 14px;&quot;&gt;&lt;b&gt;LP&lt;/b&gt;&lt;/font&gt;" style="rounded=1;whiteSpace=wrap;html=1;fillColor=#06e02a;" parent="1" vertex="1">
          <mxGeometry x="300" y="-200" width="120" height="60" as="geometry" />
        </mxCell>
        <mxCell id="cmSnR2IaZ1wPyhhUwhgz-64" style="rounded=0;orthogonalLoop=1;jettySize=auto;html=1;exitX=0;exitY=1;exitDx=0;exitDy=0;entryX=0.75;entryY=0;entryDx=0;entryDy=0;endArrow=none;endFill=0;" parent="1" source="cmSnR2IaZ1wPyhhUwhgz-54" target="cmSnR2IaZ1wPyhhUwhgz-53" edge="1">
          <mxGeometry relative="1" as="geometry" />
        </mxCell>
        <mxCell id="cmSnR2IaZ1wPyhhUwhgz-54" value="artists" style="ellipse;whiteSpace=wrap;html=1;" parent="1" vertex="1">
          <mxGeometry x="430" y="-320" width="120" height="80" as="geometry" />
        </mxCell>
        <mxCell id="cmSnR2IaZ1wPyhhUwhgz-55" value="recordLabel" style="ellipse;whiteSpace=wrap;html=1;" parent="1" vertex="1">
          <mxGeometry x="240" y="-60" width="120" height="80" as="geometry" />
        </mxCell>
        <mxCell id="cmSnR2IaZ1wPyhhUwhgz-56" value="trackList" style="ellipse;whiteSpace=wrap;html=1;" parent="1" vertex="1">
          <mxGeometry x="410" y="-70" width="120" height="80" as="geometry" />
        </mxCell>
        <mxCell id="cmSnR2IaZ1wPyhhUwhgz-57" value="musicType" style="ellipse;whiteSpace=wrap;html=1;" parent="1" vertex="1">
          <mxGeometry x="540" y="-130" width="120" height="80" as="geometry" />
        </mxCell>
        <mxCell id="cmSnR2IaZ1wPyhhUwhgz-58" value="publishDate" style="ellipse;whiteSpace=wrap;html=1;" parent="1" vertex="1">
          <mxGeometry x="530" y="-240" width="120" height="80" as="geometry" />
        </mxCell>
        <mxCell id="cmSnR2IaZ1wPyhhUwhgz-67" style="rounded=0;orthogonalLoop=1;jettySize=auto;html=1;exitX=1;exitY=0;exitDx=0;exitDy=0;entryX=0;entryY=0.75;entryDx=0;entryDy=0;endArrow=none;endFill=0;" parent="1" source="cmSnR2IaZ1wPyhhUwhgz-59" target="cmSnR2IaZ1wPyhhUwhgz-53" edge="1">
          <mxGeometry relative="1" as="geometry" />
        </mxCell>
        <mxCell id="cmSnR2IaZ1wPyhhUwhgz-59" value="&lt;font style=&quot;font-size: 14px;&quot;&gt;&lt;b&gt;is a&lt;/b&gt;&lt;/font&gt;" style="rhombus;whiteSpace=wrap;html=1;fillColor=#ff7300;" parent="1" vertex="1">
          <mxGeometry x="120" y="-70" width="80" height="80" as="geometry" />
        </mxCell>
        <mxCell id="cmSnR2IaZ1wPyhhUwhgz-63" style="rounded=0;orthogonalLoop=1;jettySize=auto;html=1;exitX=1;exitY=0.5;exitDx=0;exitDy=0;entryX=-0.005;entryY=0.626;entryDx=0;entryDy=0;entryPerimeter=0;endArrow=none;endFill=0;" parent="1" source="cmSnR2IaZ1wPyhhUwhgz-53" target="cmSnR2IaZ1wPyhhUwhgz-58" edge="1">
          <mxGeometry relative="1" as="geometry" />
        </mxCell>
        <mxCell id="cmSnR2IaZ1wPyhhUwhgz-68" value="1" style="text;html=1;strokeColor=none;fillColor=none;align=center;verticalAlign=middle;whiteSpace=wrap;rounded=0;" parent="1" vertex="1">
          <mxGeometry x="54" y="170" width="60" height="30" as="geometry" />
        </mxCell>
        <mxCell id="cmSnR2IaZ1wPyhhUwhgz-69" value="1" style="text;html=1;strokeColor=none;fillColor=none;align=center;verticalAlign=middle;whiteSpace=wrap;rounded=0;" parent="1" vertex="1">
          <mxGeometry x="260" y="-170" width="60" height="30" as="geometry" />
        </mxCell>
        <mxCell id="cmSnR2IaZ1wPyhhUwhgz-134" style="edgeStyle=orthogonalEdgeStyle;rounded=0;orthogonalLoop=1;jettySize=auto;html=1;exitX=0.5;exitY=0;exitDx=0;exitDy=0;entryX=0.5;entryY=1;entryDx=0;entryDy=0;endArrow=none;endFill=0;" parent="1" source="cmSnR2IaZ1wPyhhUwhgz-70" target="cmSnR2IaZ1wPyhhUwhgz-133" edge="1">
          <mxGeometry relative="1" as="geometry" />
        </mxCell>
        <mxCell id="cmSnR2IaZ1wPyhhUwhgz-145" style="edgeStyle=orthogonalEdgeStyle;rounded=0;orthogonalLoop=1;jettySize=auto;html=1;exitX=1;exitY=0.5;exitDx=0;exitDy=0;entryX=0;entryY=0.5;entryDx=0;entryDy=0;endArrow=none;endFill=0;" parent="1" source="cmSnR2IaZ1wPyhhUwhgz-70" target="cmSnR2IaZ1wPyhhUwhgz-144" edge="1">
          <mxGeometry relative="1" as="geometry" />
        </mxCell>
        <mxCell id="cmSnR2IaZ1wPyhhUwhgz-70" value="&lt;font style=&quot;font-size: 14px;&quot;&gt;&lt;b&gt;Order&lt;/b&gt;&lt;/font&gt;" style="rounded=1;whiteSpace=wrap;html=1;fillColor=#06e02a;" parent="1" vertex="1">
          <mxGeometry x="860" y="-50" width="120" height="60" as="geometry" />
        </mxCell>
        <mxCell id="cmSnR2IaZ1wPyhhUwhgz-71" value="barCode" style="ellipse;whiteSpace=wrap;html=1;" parent="1" vertex="1">
          <mxGeometry x="-730" y="120" width="120" height="80" as="geometry" />
        </mxCell>
        <mxCell id="cmSnR2IaZ1wPyhhUwhgz-72" value="description" style="ellipse;whiteSpace=wrap;html=1;" parent="1" vertex="1">
          <mxGeometry x="-600" y="220" width="120" height="80" as="geometry" />
        </mxCell>
        <mxCell id="cmSnR2IaZ1wPyhhUwhgz-80" style="rounded=0;orthogonalLoop=1;jettySize=auto;html=1;exitX=1;exitY=0;exitDx=0;exitDy=0;endArrow=none;endFill=0;" parent="1" source="cmSnR2IaZ1wPyhhUwhgz-73" edge="1">
          <mxGeometry relative="1" as="geometry">
            <mxPoint x="-10" y="260" as="targetPoint" />
          </mxGeometry>
        </mxCell>
        <mxCell id="cmSnR2IaZ1wPyhhUwhgz-73" value="importDate" style="ellipse;whiteSpace=wrap;html=1;" parent="1" vertex="1">
          <mxGeometry x="-320" y="340" width="120" height="80" as="geometry" />
        </mxCell>
        <mxCell id="cmSnR2IaZ1wPyhhUwhgz-79" style="rounded=0;orthogonalLoop=1;jettySize=auto;html=1;exitX=1;exitY=0;exitDx=0;exitDy=0;endArrow=none;endFill=0;" parent="1" source="cmSnR2IaZ1wPyhhUwhgz-74" edge="1">
          <mxGeometry relative="1" as="geometry">
            <mxPoint x="-10" y="260" as="targetPoint" />
          </mxGeometry>
        </mxCell>
        <mxCell id="cmSnR2IaZ1wPyhhUwhgz-74" value="dimensions" style="ellipse;whiteSpace=wrap;html=1;" parent="1" vertex="1">
          <mxGeometry x="-460" y="300" width="120" height="80" as="geometry" />
        </mxCell>
        <mxCell id="cmSnR2IaZ1wPyhhUwhgz-77" style="rounded=0;orthogonalLoop=1;jettySize=auto;html=1;exitX=1;exitY=0.5;exitDx=0;exitDy=0;entryX=0.135;entryY=0.982;entryDx=0;entryDy=0;entryPerimeter=0;endArrow=none;endFill=0;" parent="1" source="cmSnR2IaZ1wPyhhUwhgz-71" target="mtci-S--0O6nyzgvmTA5-1" edge="1">
          <mxGeometry relative="1" as="geometry" />
        </mxCell>
        <mxCell id="cmSnR2IaZ1wPyhhUwhgz-78" style="rounded=0;orthogonalLoop=1;jettySize=auto;html=1;exitX=1;exitY=0.5;exitDx=0;exitDy=0;entryX=0.167;entryY=1;entryDx=0;entryDy=0;entryPerimeter=0;endArrow=none;endFill=0;" parent="1" source="cmSnR2IaZ1wPyhhUwhgz-72" target="mtci-S--0O6nyzgvmTA5-1" edge="1">
          <mxGeometry relative="1" as="geometry" />
        </mxCell>
        <mxCell id="cmSnR2IaZ1wPyhhUwhgz-121" style="rounded=0;orthogonalLoop=1;jettySize=auto;html=1;exitX=0;exitY=0.5;exitDx=0;exitDy=0;endArrow=none;endFill=0;" parent="1" source="cmSnR2IaZ1wPyhhUwhgz-81" target="cmSnR2IaZ1wPyhhUwhgz-83" edge="1">
          <mxGeometry relative="1" as="geometry" />
        </mxCell>
        <mxCell id="cmSnR2IaZ1wPyhhUwhgz-122" style="rounded=0;orthogonalLoop=1;jettySize=auto;html=1;exitX=0.25;exitY=0;exitDx=0;exitDy=0;endArrow=none;endFill=0;" parent="1" source="cmSnR2IaZ1wPyhhUwhgz-81" target="cmSnR2IaZ1wPyhhUwhgz-82" edge="1">
          <mxGeometry relative="1" as="geometry" />
        </mxCell>
        <mxCell id="cmSnR2IaZ1wPyhhUwhgz-124" style="rounded=0;orthogonalLoop=1;jettySize=auto;html=1;exitX=0.75;exitY=0;exitDx=0;exitDy=0;entryX=0;entryY=1;entryDx=0;entryDy=0;endArrow=none;endFill=0;" parent="1" source="cmSnR2IaZ1wPyhhUwhgz-81" target="cmSnR2IaZ1wPyhhUwhgz-84" edge="1">
          <mxGeometry relative="1" as="geometry" />
        </mxCell>
        <mxCell id="cmSnR2IaZ1wPyhhUwhgz-125" style="rounded=0;orthogonalLoop=1;jettySize=auto;html=1;exitX=1;exitY=0.5;exitDx=0;exitDy=0;entryX=0;entryY=0.5;entryDx=0;entryDy=0;endArrow=none;endFill=0;" parent="1" source="cmSnR2IaZ1wPyhhUwhgz-81" target="cmSnR2IaZ1wPyhhUwhgz-86" edge="1">
          <mxGeometry relative="1" as="geometry" />
        </mxCell>
        <mxCell id="cmSnR2IaZ1wPyhhUwhgz-81" value="&lt;font style=&quot;font-size: 14px;&quot;&gt;&lt;b&gt;DeliveryInfo&lt;/b&gt;&lt;/font&gt;" style="rounded=1;whiteSpace=wrap;html=1;fillColor=#06e02a;" parent="1" vertex="1">
          <mxGeometry x="860" y="-270" width="120" height="60" as="geometry" />
        </mxCell>
        <mxCell id="cmSnR2IaZ1wPyhhUwhgz-82" value="id" style="ellipse;whiteSpace=wrap;html=1;" parent="1" vertex="1">
          <mxGeometry x="710" y="-410" width="120" height="80" as="geometry" />
        </mxCell>
        <mxCell id="cmSnR2IaZ1wPyhhUwhgz-83" value="instructions" style="ellipse;whiteSpace=wrap;html=1;" parent="1" vertex="1">
          <mxGeometry x="660" y="-310" width="120" height="80" as="geometry" />
        </mxCell>
        <mxCell id="cmSnR2IaZ1wPyhhUwhgz-84" value="name" style="ellipse;whiteSpace=wrap;html=1;" parent="1" vertex="1">
          <mxGeometry x="1010" y="-400" width="120" height="80" as="geometry" />
        </mxCell>
        <mxCell id="cmSnR2IaZ1wPyhhUwhgz-85" value="province" style="ellipse;whiteSpace=wrap;html=1;" parent="1" vertex="1">
          <mxGeometry x="870" y="-430" width="120" height="80" as="geometry" />
        </mxCell>
        <mxCell id="cmSnR2IaZ1wPyhhUwhgz-86" value="address" style="ellipse;whiteSpace=wrap;html=1;" parent="1" vertex="1">
          <mxGeometry x="1070" y="-310" width="120" height="80" as="geometry" />
        </mxCell>
        <mxCell id="cmSnR2IaZ1wPyhhUwhgz-87" value="&lt;font style=&quot;font-size: 14px;&quot;&gt;&lt;b&gt;Invoice&lt;/b&gt;&lt;/font&gt;" style="rounded=1;whiteSpace=wrap;html=1;fillColor=#06e02a;" parent="1" vertex="1">
          <mxGeometry x="860" y="380" width="120" height="60" as="geometry" />
        </mxCell>
        <mxCell id="cmSnR2IaZ1wPyhhUwhgz-93" style="rounded=0;orthogonalLoop=1;jettySize=auto;html=1;exitX=1;exitY=1;exitDx=0;exitDy=0;entryX=0;entryY=0.75;entryDx=0;entryDy=0;endArrow=none;endFill=0;" parent="1" source="cmSnR2IaZ1wPyhhUwhgz-91" target="cmSnR2IaZ1wPyhhUwhgz-87" edge="1">
          <mxGeometry relative="1" as="geometry" />
        </mxCell>
        <mxCell id="cmSnR2IaZ1wPyhhUwhgz-111" style="rounded=0;orthogonalLoop=1;jettySize=auto;html=1;exitX=1;exitY=0;exitDx=0;exitDy=0;entryX=0;entryY=0.5;entryDx=0;entryDy=0;endArrow=none;endFill=0;" parent="1" source="cmSnR2IaZ1wPyhhUwhgz-91" target="cmSnR2IaZ1wPyhhUwhgz-110" edge="1">
          <mxGeometry relative="1" as="geometry" />
        </mxCell>
        <mxCell id="cmSnR2IaZ1wPyhhUwhgz-91" value="&lt;b&gt;&lt;font style=&quot;font-size: 14px;&quot;&gt;has&lt;/font&gt;&lt;/b&gt;" style="rhombus;whiteSpace=wrap;html=1;fillColor=#ff7300;" parent="1" vertex="1">
          <mxGeometry x="240" y="250" width="80" height="80" as="geometry" />
        </mxCell>
        <mxCell id="cmSnR2IaZ1wPyhhUwhgz-96" value="n" style="text;html=1;strokeColor=none;fillColor=none;align=center;verticalAlign=middle;whiteSpace=wrap;rounded=0;" parent="1" vertex="1">
          <mxGeometry x="70" y="245" width="60" height="30" as="geometry" />
        </mxCell>
        <mxCell id="cmSnR2IaZ1wPyhhUwhgz-97" value="1" style="text;html=1;strokeColor=none;fillColor=none;align=center;verticalAlign=middle;whiteSpace=wrap;rounded=0;" parent="1" vertex="1">
          <mxGeometry x="820" y="395" width="60" height="30" as="geometry" />
        </mxCell>
        <mxCell id="cmSnR2IaZ1wPyhhUwhgz-105" style="rounded=0;orthogonalLoop=1;jettySize=auto;html=1;exitX=0.5;exitY=0;exitDx=0;exitDy=0;entryX=0.25;entryY=1;entryDx=0;entryDy=0;endArrow=none;endFill=0;" parent="1" source="cmSnR2IaZ1wPyhhUwhgz-98" target="cmSnR2IaZ1wPyhhUwhgz-87" edge="1">
          <mxGeometry relative="1" as="geometry" />
        </mxCell>
        <mxCell id="cmSnR2IaZ1wPyhhUwhgz-98" value="id" style="ellipse;whiteSpace=wrap;html=1;" parent="1" vertex="1">
          <mxGeometry x="600" y="630" width="120" height="80" as="geometry" />
        </mxCell>
        <mxCell id="cmSnR2IaZ1wPyhhUwhgz-104" style="rounded=0;orthogonalLoop=1;jettySize=auto;html=1;exitX=1;exitY=0;exitDx=0;exitDy=0;entryX=0;entryY=1;entryDx=0;entryDy=0;endArrow=none;endFill=0;" parent="1" source="cmSnR2IaZ1wPyhhUwhgz-99" target="cmSnR2IaZ1wPyhhUwhgz-87" edge="1">
          <mxGeometry relative="1" as="geometry" />
        </mxCell>
        <mxCell id="cmSnR2IaZ1wPyhhUwhgz-99" value="priceExcludeVAT" style="ellipse;whiteSpace=wrap;html=1;" parent="1" vertex="1">
          <mxGeometry x="550" y="505" width="120" height="80" as="geometry" />
        </mxCell>
        <mxCell id="cmSnR2IaZ1wPyhhUwhgz-107" style="rounded=0;orthogonalLoop=1;jettySize=auto;html=1;exitX=0.5;exitY=0;exitDx=0;exitDy=0;entryX=0.75;entryY=1;entryDx=0;entryDy=0;endArrow=none;endFill=0;" parent="1" source="cmSnR2IaZ1wPyhhUwhgz-100" target="cmSnR2IaZ1wPyhhUwhgz-87" edge="1">
          <mxGeometry relative="1" as="geometry" />
        </mxCell>
        <mxCell id="cmSnR2IaZ1wPyhhUwhgz-100" value="priceIncludeVAT" style="ellipse;whiteSpace=wrap;html=1;" parent="1" vertex="1">
          <mxGeometry x="890" y="660" width="120" height="80" as="geometry" />
        </mxCell>
        <mxCell id="cmSnR2IaZ1wPyhhUwhgz-106" style="rounded=0;orthogonalLoop=1;jettySize=auto;html=1;exitX=0.5;exitY=0;exitDx=0;exitDy=0;endArrow=none;endFill=0;" parent="1" source="cmSnR2IaZ1wPyhhUwhgz-101" target="cmSnR2IaZ1wPyhhUwhgz-87" edge="1">
          <mxGeometry relative="1" as="geometry" />
        </mxCell>
        <mxCell id="cmSnR2IaZ1wPyhhUwhgz-101" value="totalAmount" style="ellipse;whiteSpace=wrap;html=1;" parent="1" vertex="1">
          <mxGeometry x="750" y="660" width="120" height="80" as="geometry" />
        </mxCell>
        <mxCell id="cmSnR2IaZ1wPyhhUwhgz-108" style="rounded=0;orthogonalLoop=1;jettySize=auto;html=1;entryX=1;entryY=1;entryDx=0;entryDy=0;endArrow=none;endFill=0;" parent="1" source="cmSnR2IaZ1wPyhhUwhgz-102" target="cmSnR2IaZ1wPyhhUwhgz-87" edge="1">
          <mxGeometry relative="1" as="geometry" />
        </mxCell>
        <mxCell id="cmSnR2IaZ1wPyhhUwhgz-102" value="totalPrice" style="ellipse;whiteSpace=wrap;html=1;" parent="1" vertex="1">
          <mxGeometry x="1030" y="650" width="120" height="80" as="geometry" />
        </mxCell>
        <mxCell id="cmSnR2IaZ1wPyhhUwhgz-109" style="rounded=0;orthogonalLoop=1;jettySize=auto;html=1;exitX=0;exitY=0.5;exitDx=0;exitDy=0;entryX=1;entryY=0.5;entryDx=0;entryDy=0;endArrow=none;endFill=0;" parent="1" source="cmSnR2IaZ1wPyhhUwhgz-103" target="cmSnR2IaZ1wPyhhUwhgz-87" edge="1">
          <mxGeometry relative="1" as="geometry" />
        </mxCell>
        <mxCell id="cmSnR2IaZ1wPyhhUwhgz-103" value="shippingFees" style="ellipse;whiteSpace=wrap;html=1;" parent="1" vertex="1">
          <mxGeometry x="1130" y="580" width="120" height="80" as="geometry" />
        </mxCell>
        <mxCell id="cmSnR2IaZ1wPyhhUwhgz-127" style="rounded=0;orthogonalLoop=1;jettySize=auto;html=1;exitX=0.5;exitY=0;exitDx=0;exitDy=0;endArrow=none;endFill=0;" parent="1" source="cmSnR2IaZ1wPyhhUwhgz-110" target="cmSnR2IaZ1wPyhhUwhgz-114" edge="1">
          <mxGeometry relative="1" as="geometry" />
        </mxCell>
        <mxCell id="cmSnR2IaZ1wPyhhUwhgz-128" style="rounded=0;orthogonalLoop=1;jettySize=auto;html=1;exitX=0.75;exitY=0;exitDx=0;exitDy=0;entryX=0.321;entryY=0.943;entryDx=0;entryDy=0;endArrow=none;endFill=0;entryPerimeter=0;" parent="1" source="cmSnR2IaZ1wPyhhUwhgz-110" target="cmSnR2IaZ1wPyhhUwhgz-116" edge="1">
          <mxGeometry relative="1" as="geometry" />
        </mxCell>
        <mxCell id="cmSnR2IaZ1wPyhhUwhgz-129" style="rounded=0;orthogonalLoop=1;jettySize=auto;html=1;exitX=1;exitY=0.5;exitDx=0;exitDy=0;endArrow=none;endFill=0;" parent="1" source="cmSnR2IaZ1wPyhhUwhgz-110" target="cmSnR2IaZ1wPyhhUwhgz-117" edge="1">
          <mxGeometry relative="1" as="geometry" />
        </mxCell>
        <mxCell id="cmSnR2IaZ1wPyhhUwhgz-130" style="rounded=0;orthogonalLoop=1;jettySize=auto;html=1;exitX=0.138;exitY=0.977;exitDx=0;exitDy=0;entryX=0.225;entryY=0.082;entryDx=0;entryDy=0;endArrow=none;endFill=0;exitPerimeter=0;entryPerimeter=0;" parent="1" source="cmSnR2IaZ1wPyhhUwhgz-110" target="cmSnR2IaZ1wPyhhUwhgz-118" edge="1">
          <mxGeometry relative="1" as="geometry" />
        </mxCell>
        <mxCell id="cmSnR2IaZ1wPyhhUwhgz-131" style="rounded=0;orthogonalLoop=1;jettySize=auto;html=1;exitX=0.938;exitY=0.979;exitDx=0;exitDy=0;entryX=0;entryY=0;entryDx=0;entryDy=0;endArrow=none;endFill=0;exitPerimeter=0;" parent="1" source="cmSnR2IaZ1wPyhhUwhgz-110" target="cmSnR2IaZ1wPyhhUwhgz-113" edge="1">
          <mxGeometry relative="1" as="geometry" />
        </mxCell>
        <mxCell id="cmSnR2IaZ1wPyhhUwhgz-132" style="rounded=0;orthogonalLoop=1;jettySize=auto;html=1;exitX=0.75;exitY=1;exitDx=0;exitDy=0;endArrow=none;endFill=0;" parent="1" source="cmSnR2IaZ1wPyhhUwhgz-110" target="cmSnR2IaZ1wPyhhUwhgz-115" edge="1">
          <mxGeometry relative="1" as="geometry" />
        </mxCell>
        <mxCell id="cmSnR2IaZ1wPyhhUwhgz-110" value="&lt;b&gt;&lt;font style=&quot;font-size: 14px;&quot;&gt;MediaInfo&lt;/font&gt;&lt;/b&gt;" style="rounded=1;whiteSpace=wrap;html=1;fillColor=#06e02a;" parent="1" vertex="1">
          <mxGeometry x="340" y="140" width="120" height="60" as="geometry" />
        </mxCell>
        <mxCell id="cmSnR2IaZ1wPyhhUwhgz-113" value="price" style="ellipse;whiteSpace=wrap;html=1;" parent="1" vertex="1">
          <mxGeometry x="630" y="220" width="120" height="80" as="geometry" />
        </mxCell>
        <mxCell id="cmSnR2IaZ1wPyhhUwhgz-114" value="productID" style="ellipse;whiteSpace=wrap;html=1;" parent="1" vertex="1">
          <mxGeometry x="230" y="30" width="120" height="80" as="geometry" />
        </mxCell>
        <mxCell id="cmSnR2IaZ1wPyhhUwhgz-115" value="quantity" style="ellipse;whiteSpace=wrap;html=1;" parent="1" vertex="1">
          <mxGeometry x="650" y="110" width="120" height="80" as="geometry" />
        </mxCell>
        <mxCell id="cmSnR2IaZ1wPyhhUwhgz-116" value="barCode" style="ellipse;whiteSpace=wrap;html=1;" parent="1" vertex="1">
          <mxGeometry x="410" y="20" width="120" height="80" as="geometry" />
        </mxCell>
        <mxCell id="cmSnR2IaZ1wPyhhUwhgz-117" value="title" style="ellipse;whiteSpace=wrap;html=1;" parent="1" vertex="1">
          <mxGeometry x="550" y="20" width="120" height="80" as="geometry" />
        </mxCell>
        <mxCell id="cmSnR2IaZ1wPyhhUwhgz-118" value="description" style="ellipse;whiteSpace=wrap;html=1;" parent="1" vertex="1">
          <mxGeometry x="340" y="235" width="120" height="80" as="geometry" />
        </mxCell>
        <mxCell id="cmSnR2IaZ1wPyhhUwhgz-119" value="imageUrl" style="ellipse;whiteSpace=wrap;html=1;" parent="1" vertex="1">
          <mxGeometry x="134" y="120" width="120" height="80" as="geometry" />
        </mxCell>
        <mxCell id="cmSnR2IaZ1wPyhhUwhgz-123" style="rounded=0;orthogonalLoop=1;jettySize=auto;html=1;exitX=0.5;exitY=0;exitDx=0;exitDy=0;entryX=0.384;entryY=1.036;entryDx=0;entryDy=0;entryPerimeter=0;endArrow=none;endFill=0;" parent="1" source="cmSnR2IaZ1wPyhhUwhgz-81" target="cmSnR2IaZ1wPyhhUwhgz-85" edge="1">
          <mxGeometry relative="1" as="geometry" />
        </mxCell>
        <mxCell id="cmSnR2IaZ1wPyhhUwhgz-126" style="rounded=0;orthogonalLoop=1;jettySize=auto;html=1;exitX=0;exitY=0.25;exitDx=0;exitDy=0;entryX=1.008;entryY=0.632;entryDx=0;entryDy=0;entryPerimeter=0;endArrow=none;endFill=0;" parent="1" source="cmSnR2IaZ1wPyhhUwhgz-110" target="cmSnR2IaZ1wPyhhUwhgz-119" edge="1">
          <mxGeometry relative="1" as="geometry" />
        </mxCell>
        <mxCell id="cmSnR2IaZ1wPyhhUwhgz-135" style="edgeStyle=orthogonalEdgeStyle;rounded=0;orthogonalLoop=1;jettySize=auto;html=1;exitX=0.5;exitY=0;exitDx=0;exitDy=0;entryX=0.5;entryY=1;entryDx=0;entryDy=0;endArrow=none;endFill=0;" parent="1" source="cmSnR2IaZ1wPyhhUwhgz-133" target="cmSnR2IaZ1wPyhhUwhgz-81" edge="1">
          <mxGeometry relative="1" as="geometry" />
        </mxCell>
        <mxCell id="cmSnR2IaZ1wPyhhUwhgz-133" value="&lt;font style=&quot;font-size: 14px;&quot;&gt;&lt;b&gt;has&lt;/b&gt;&lt;/font&gt;" style="rhombus;whiteSpace=wrap;html=1;fillColor=#ff7300;" parent="1" vertex="1">
          <mxGeometry x="880" y="-170" width="80" height="80" as="geometry" />
        </mxCell>
        <mxCell id="cmSnR2IaZ1wPyhhUwhgz-136" value="1" style="text;html=1;strokeColor=none;fillColor=none;align=center;verticalAlign=middle;whiteSpace=wrap;rounded=0;" parent="1" vertex="1">
          <mxGeometry x="900" y="-215" width="60" height="30" as="geometry" />
        </mxCell>
        <mxCell id="cmSnR2IaZ1wPyhhUwhgz-137" value="1" style="text;html=1;strokeColor=none;fillColor=none;align=center;verticalAlign=middle;whiteSpace=wrap;rounded=0;" parent="1" vertex="1">
          <mxGeometry x="900" y="-80" width="60" height="30" as="geometry" />
        </mxCell>
        <mxCell id="cmSnR2IaZ1wPyhhUwhgz-139" style="edgeStyle=orthogonalEdgeStyle;rounded=0;orthogonalLoop=1;jettySize=auto;html=1;entryX=0.5;entryY=1;entryDx=0;entryDy=0;endArrow=none;endFill=0;" parent="1" source="cmSnR2IaZ1wPyhhUwhgz-138" target="cmSnR2IaZ1wPyhhUwhgz-70" edge="1">
          <mxGeometry relative="1" as="geometry" />
        </mxCell>
        <mxCell id="cmSnR2IaZ1wPyhhUwhgz-140" style="edgeStyle=orthogonalEdgeStyle;rounded=0;orthogonalLoop=1;jettySize=auto;html=1;exitX=0.5;exitY=1;exitDx=0;exitDy=0;entryX=0.5;entryY=0;entryDx=0;entryDy=0;endArrow=none;endFill=0;" parent="1" source="cmSnR2IaZ1wPyhhUwhgz-138" target="cmSnR2IaZ1wPyhhUwhgz-87" edge="1">
          <mxGeometry relative="1" as="geometry" />
        </mxCell>
        <mxCell id="cmSnR2IaZ1wPyhhUwhgz-138" value="&lt;b&gt;&lt;font style=&quot;font-size: 14px;&quot;&gt;has&lt;/font&gt;&lt;/b&gt;" style="rhombus;whiteSpace=wrap;html=1;fillColor=#ff7300;" parent="1" vertex="1">
          <mxGeometry x="880" y="165" width="80" height="80" as="geometry" />
        </mxCell>
        <mxCell id="cmSnR2IaZ1wPyhhUwhgz-141" value="1" style="text;html=1;strokeColor=none;fillColor=none;align=center;verticalAlign=middle;whiteSpace=wrap;rounded=0;" parent="1" vertex="1">
          <mxGeometry x="900" y="10" width="60" height="30" as="geometry" />
        </mxCell>
        <mxCell id="cmSnR2IaZ1wPyhhUwhgz-142" value="1" style="text;html=1;strokeColor=none;fillColor=none;align=center;verticalAlign=middle;whiteSpace=wrap;rounded=0;" parent="1" vertex="1">
          <mxGeometry x="900" y="350" width="60" height="30" as="geometry" />
        </mxCell>
        <mxCell id="cmSnR2IaZ1wPyhhUwhgz-143" value="&lt;b&gt;&lt;font style=&quot;font-size: 14px;&quot;&gt;PaymentTransaction&lt;/font&gt;&lt;/b&gt;" style="rounded=1;whiteSpace=wrap;html=1;fillColor=#06e02a;" parent="1" vertex="1">
          <mxGeometry x="1210" y="-50" width="170" height="60" as="geometry" />
        </mxCell>
        <mxCell id="cmSnR2IaZ1wPyhhUwhgz-146" style="edgeStyle=orthogonalEdgeStyle;rounded=0;orthogonalLoop=1;jettySize=auto;html=1;exitX=1;exitY=0.5;exitDx=0;exitDy=0;endArrow=none;endFill=0;" parent="1" source="cmSnR2IaZ1wPyhhUwhgz-144" target="cmSnR2IaZ1wPyhhUwhgz-143" edge="1">
          <mxGeometry relative="1" as="geometry" />
        </mxCell>
        <mxCell id="cmSnR2IaZ1wPyhhUwhgz-144" value="&lt;b&gt;&lt;font style=&quot;font-size: 14px;&quot;&gt;has&lt;/font&gt;&lt;/b&gt;" style="rhombus;whiteSpace=wrap;html=1;fillColor=#ff7300;" parent="1" vertex="1">
          <mxGeometry x="1060" y="-60" width="80" height="80" as="geometry" />
        </mxCell>
        <mxCell id="cmSnR2IaZ1wPyhhUwhgz-148" value="1" style="text;html=1;strokeColor=none;fillColor=none;align=center;verticalAlign=middle;whiteSpace=wrap;rounded=0;" parent="1" vertex="1">
          <mxGeometry x="960" y="-45" width="60" height="30" as="geometry" />
        </mxCell>
        <mxCell id="cmSnR2IaZ1wPyhhUwhgz-149" value="1" style="text;html=1;strokeColor=none;fillColor=none;align=center;verticalAlign=middle;whiteSpace=wrap;rounded=0;" parent="1" vertex="1">
          <mxGeometry x="1170" y="-45" width="60" height="30" as="geometry" />
        </mxCell>
        <mxCell id="cmSnR2IaZ1wPyhhUwhgz-159" style="rounded=0;orthogonalLoop=1;jettySize=auto;html=1;exitX=0.5;exitY=0;exitDx=0;exitDy=0;entryX=0.25;entryY=1;entryDx=0;entryDy=0;endArrow=none;endFill=0;" parent="1" source="cmSnR2IaZ1wPyhhUwhgz-150" target="cmSnR2IaZ1wPyhhUwhgz-143" edge="1">
          <mxGeometry relative="1" as="geometry" />
        </mxCell>
        <mxCell id="cmSnR2IaZ1wPyhhUwhgz-150" value="id" style="ellipse;whiteSpace=wrap;html=1;" parent="1" vertex="1">
          <mxGeometry x="1070" y="80" width="120" height="80" as="geometry" />
        </mxCell>
        <mxCell id="cmSnR2IaZ1wPyhhUwhgz-157" style="rounded=0;orthogonalLoop=1;jettySize=auto;html=1;entryX=0.5;entryY=0;entryDx=0;entryDy=0;endArrow=none;endFill=0;" parent="1" source="cmSnR2IaZ1wPyhhUwhgz-151" target="cmSnR2IaZ1wPyhhUwhgz-143" edge="1">
          <mxGeometry relative="1" as="geometry" />
        </mxCell>
        <mxCell id="cmSnR2IaZ1wPyhhUwhgz-151" value="cardHolderName" style="ellipse;whiteSpace=wrap;html=1;" parent="1" vertex="1">
          <mxGeometry x="1220" y="-210" width="120" height="80" as="geometry" />
        </mxCell>
        <mxCell id="cmSnR2IaZ1wPyhhUwhgz-160" style="rounded=0;orthogonalLoop=1;jettySize=auto;html=1;exitX=0.5;exitY=0;exitDx=0;exitDy=0;endArrow=none;endFill=0;" parent="1" source="cmSnR2IaZ1wPyhhUwhgz-152" target="cmSnR2IaZ1wPyhhUwhgz-143" edge="1">
          <mxGeometry relative="1" as="geometry" />
        </mxCell>
        <mxCell id="cmSnR2IaZ1wPyhhUwhgz-152" value="withdrawBalance" style="ellipse;whiteSpace=wrap;html=1;" parent="1" vertex="1">
          <mxGeometry x="1220" y="85" width="120" height="80" as="geometry" />
        </mxCell>
        <mxCell id="cmSnR2IaZ1wPyhhUwhgz-158" style="rounded=0;orthogonalLoop=1;jettySize=auto;html=1;exitX=0;exitY=1;exitDx=0;exitDy=0;entryX=0.75;entryY=0;entryDx=0;entryDy=0;endArrow=none;endFill=0;" parent="1" source="cmSnR2IaZ1wPyhhUwhgz-153" target="cmSnR2IaZ1wPyhhUwhgz-143" edge="1">
          <mxGeometry relative="1" as="geometry" />
        </mxCell>
        <mxCell id="cmSnR2IaZ1wPyhhUwhgz-153" value="transactionContent" style="ellipse;whiteSpace=wrap;html=1;" parent="1" vertex="1">
          <mxGeometry x="1380" y="-185" width="120" height="80" as="geometry" />
        </mxCell>
        <mxCell id="cmSnR2IaZ1wPyhhUwhgz-156" style="rounded=0;orthogonalLoop=1;jettySize=auto;html=1;exitX=1;exitY=1;exitDx=0;exitDy=0;entryX=0.25;entryY=0;entryDx=0;entryDy=0;endArrow=none;endFill=0;" parent="1" source="cmSnR2IaZ1wPyhhUwhgz-154" target="cmSnR2IaZ1wPyhhUwhgz-143" edge="1">
          <mxGeometry relative="1" as="geometry" />
        </mxCell>
        <mxCell id="cmSnR2IaZ1wPyhhUwhgz-154" value="createdDate" style="ellipse;whiteSpace=wrap;html=1;" parent="1" vertex="1">
          <mxGeometry x="1080" y="-170" width="120" height="80" as="geometry" />
        </mxCell>
        <mxCell id="cmSnR2IaZ1wPyhhUwhgz-162" style="rounded=0;orthogonalLoop=1;jettySize=auto;html=1;exitX=0;exitY=0;exitDx=0;exitDy=0;entryX=0.75;entryY=1;entryDx=0;entryDy=0;endArrow=none;endFill=0;" parent="1" source="cmSnR2IaZ1wPyhhUwhgz-161" target="cmSnR2IaZ1wPyhhUwhgz-143" edge="1">
          <mxGeometry relative="1" as="geometry" />
        </mxCell>
        <mxCell id="cmSnR2IaZ1wPyhhUwhgz-161" value="method" style="ellipse;whiteSpace=wrap;html=1;" parent="1" vertex="1">
          <mxGeometry x="1370" y="70" width="120" height="80" as="geometry" />
        </mxCell>
        <mxCell id="gA7Rf4ynzvhB-5NlllYP-2" style="edgeStyle=orthogonalEdgeStyle;rounded=0;orthogonalLoop=1;jettySize=auto;html=1;exitX=1;exitY=0.5;exitDx=0;exitDy=0;entryX=0;entryY=0.5;entryDx=0;entryDy=0;endArrow=none;endFill=0;" parent="1" source="gA7Rf4ynzvhB-5NlllYP-1" target="cmSnR2IaZ1wPyhhUwhgz-70" edge="1">
          <mxGeometry relative="1" as="geometry" />
        </mxCell>
        <mxCell id="gA7Rf4ynzvhB-5NlllYP-1" value="id" style="ellipse;whiteSpace=wrap;html=1;" parent="1" vertex="1">
          <mxGeometry x="680" y="-60" width="120" height="80" as="geometry" />
        </mxCell>
        <mxCell id="SuSSub69qISTVMIWtvXZ-2" style="rounded=0;orthogonalLoop=1;jettySize=auto;html=1;exitX=0.5;exitY=0;exitDx=0;exitDy=0;entryX=0.5;entryY=1;entryDx=0;entryDy=0;endArrow=none;endFill=0;" parent="1" source="SuSSub69qISTVMIWtvXZ-1" target="cmSnR2IaZ1wPyhhUwhgz-9" edge="1">
          <mxGeometry relative="1" as="geometry" />
        </mxCell>
        <mxCell id="SuSSub69qISTVMIWtvXZ-1" value="id" style="ellipse;whiteSpace=wrap;html=1;" parent="1" vertex="1">
          <mxGeometry x="-430" y="720" width="120" height="80" as="geometry" />
        </mxCell>
        <mxCell id="SuSSub69qISTVMIWtvXZ-6" value="id" style="ellipse;whiteSpace=wrap;html=1;" parent="1" vertex="1">
          <mxGeometry x="340" y="440" width="120" height="80" as="geometry" />
        </mxCell>
        <mxCell id="SuSSub69qISTVMIWtvXZ-7" style="rounded=0;orthogonalLoop=1;jettySize=auto;html=1;exitX=0;exitY=0.5;exitDx=0;exitDy=0;endArrow=none;endFill=0;entryX=1;entryY=0.25;entryDx=0;entryDy=0;" parent="1" source="SuSSub69qISTVMIWtvXZ-6" target="cmSnR2IaZ1wPyhhUwhgz-24" edge="1">
          <mxGeometry relative="1" as="geometry">
            <mxPoint x="210" y="450" as="targetPoint" />
          </mxGeometry>
        </mxCell>
        <mxCell id="SuSSub69qISTVMIWtvXZ-9" style="rounded=0;orthogonalLoop=1;jettySize=auto;html=1;exitX=1;exitY=1;exitDx=0;exitDy=0;entryX=0;entryY=0.5;entryDx=0;entryDy=0;endArrow=none;endFill=0;" parent="1" source="SuSSub69qISTVMIWtvXZ-8" target="mtci-S--0O6nyzgvmTA5-22" edge="1">
          <mxGeometry relative="1" as="geometry" />
        </mxCell>
        <mxCell id="SuSSub69qISTVMIWtvXZ-8" value="id" style="ellipse;whiteSpace=wrap;html=1;" parent="1" vertex="1">
          <mxGeometry x="-200" y="-340" width="120" height="80" as="geometry" />
        </mxCell>
        <mxCell id="SuSSub69qISTVMIWtvXZ-12" style="rounded=0;orthogonalLoop=1;jettySize=auto;html=1;exitX=0.5;exitY=1;exitDx=0;exitDy=0;endArrow=none;endFill=0;" parent="1" source="SuSSub69qISTVMIWtvXZ-10" target="cmSnR2IaZ1wPyhhUwhgz-53" edge="1">
          <mxGeometry relative="1" as="geometry" />
        </mxCell>
        <mxCell id="SuSSub69qISTVMIWtvXZ-10" value="id" style="ellipse;whiteSpace=wrap;html=1;" parent="1" vertex="1">
          <mxGeometry x="280" y="-340" width="120" height="80" as="geometry" />
        </mxCell>
        <mxCell id="LMrKKEjNfm7VSY0wcTXW-2" style="rounded=0;orthogonalLoop=1;jettySize=auto;html=1;exitX=0;exitY=0;exitDx=0;exitDy=0;entryX=0.5;entryY=1;entryDx=0;entryDy=0;endArrow=none;endFill=0;" edge="1" parent="1" source="LMrKKEjNfm7VSY0wcTXW-1" target="cmSnR2IaZ1wPyhhUwhgz-110">
          <mxGeometry relative="1" as="geometry" />
        </mxCell>
        <mxCell id="LMrKKEjNfm7VSY0wcTXW-1" value="invoiceId" style="ellipse;whiteSpace=wrap;html=1;" vertex="1" parent="1">
          <mxGeometry x="490" y="245" width="120" height="80" as="geometry" />
        </mxCell>
      </root>
    </mxGraphModel>
  </diagram>
</mxfile>
